<svg width="772" height="718" viewBox="0 0 772 718" fill="none" xmlns="http://www.w3.org/2000/svg">
<path d="M434.474 471.188C434.474 494.406 429.9 517.398 421.013 538.849C412.126 560.3 399.1 579.791 382.679 596.209L257.633 471.188H434.474Z" fill="#CF02D2" fill-opacity="0.79"/>
<path d="M382.679 596.209C363.422 615.462 339.978 630.008 314.175 638.714C288.372 647.419 260.906 650.049 233.919 646.398C206.932 642.747 181.153 632.914 158.592 617.665C136.031 602.416 117.297 582.164 103.85 558.487C90.4042 534.81 82.6089 508.347 81.0724 481.163C79.5359 453.979 84.2996 426.807 94.9923 401.766C105.685 376.725 122.017 354.492 142.717 336.799C163.416 319.105 187.923 306.431 214.326 299.763L257.633 471.187L382.679 596.209Z" fill="#A30303"/>
<path d="M211.862 300.405C238.314 293.318 266.05 292.471 292.885 297.929C319.72 303.386 344.92 315.001 366.5 331.856C388.08 348.711 405.45 370.347 417.242 395.058C429.033 419.769 434.923 446.88 434.448 474.255L257.632 471.188L211.862 300.405Z" fill="#46DCB5"/>
<path d="M208.524 301.64C230.862 295.308 254.23 293.438 277.292 296.138C300.353 298.838 322.658 306.055 342.932 317.376L256.753 471.778L208.524 301.64Z" fill="#A5A801"/>
<rect x="504" y="401" width="50" height="20" fill="#AF0000"/>
<path d="M574.673 419V405.182H576.347V417.516H582.77V419H574.673ZM585.145 419V408.636H586.737V419H585.145ZM585.955 406.909C585.644 406.909 585.377 406.803 585.152 406.592C584.931 406.381 584.821 406.126 584.821 405.83C584.821 405.533 584.931 405.279 585.152 405.067C585.377 404.856 585.644 404.75 585.955 404.75C586.265 404.75 586.53 404.856 586.751 405.067C586.976 405.279 587.088 405.533 587.088 405.83C587.088 406.126 586.976 406.381 586.751 406.592C586.53 406.803 586.265 406.909 585.955 406.909ZM591.138 415.222L591.111 413.251H591.435L595.969 408.636H597.939L593.108 413.521H592.973L591.138 415.222ZM589.654 419V405.182H591.246V419H589.654ZM596.239 419L592.191 413.872L593.324 412.766L598.263 419H596.239ZM603.907 419.216C602.908 419.216 602.047 418.996 601.323 418.555C600.603 418.109 600.048 417.489 599.656 416.692C599.27 415.892 599.076 414.961 599.076 413.899C599.076 412.838 599.27 411.902 599.656 411.092C600.048 410.278 600.592 409.644 601.289 409.19C601.991 408.731 602.81 408.501 603.745 408.501C604.285 408.501 604.818 408.591 605.344 408.771C605.87 408.951 606.35 409.244 606.781 409.648C607.213 410.049 607.557 410.58 607.814 411.241C608.07 411.902 608.198 412.716 608.198 413.683V414.358H600.21V412.982H606.579C606.579 412.397 606.462 411.875 606.228 411.416C605.999 410.957 605.67 410.595 605.243 410.33C604.82 410.065 604.321 409.932 603.745 409.932C603.111 409.932 602.562 410.089 602.099 410.404C601.64 410.714 601.287 411.119 601.04 411.619C600.792 412.118 600.668 412.653 600.668 413.224V414.142C600.668 414.925 600.803 415.588 601.073 416.132C601.348 416.672 601.728 417.084 602.214 417.367C602.699 417.646 603.264 417.786 603.907 417.786C604.325 417.786 604.703 417.727 605.041 417.61C605.382 417.489 605.677 417.309 605.924 417.07C606.172 416.827 606.363 416.526 606.498 416.166L608.036 416.598C607.874 417.12 607.602 417.579 607.22 417.974C606.838 418.366 606.365 418.672 605.803 418.892C605.241 419.108 604.609 419.216 603.907 419.216ZM617.961 410.957L616.531 411.362C616.441 411.124 616.308 410.892 616.133 410.667C615.962 410.438 615.728 410.249 615.431 410.1C615.134 409.952 614.754 409.878 614.291 409.878C613.657 409.878 613.128 410.024 612.705 410.316C612.287 410.604 612.078 410.971 612.078 411.416C612.078 411.812 612.222 412.125 612.51 412.354C612.798 412.583 613.247 412.775 613.859 412.928L615.397 413.305C616.324 413.53 617.015 413.874 617.469 414.338C617.923 414.797 618.15 415.388 618.15 416.112C618.15 416.706 617.979 417.237 617.638 417.705C617.3 418.172 616.828 418.541 616.221 418.811C615.613 419.081 614.907 419.216 614.102 419.216C613.045 419.216 612.17 418.987 611.477 418.528C610.785 418.069 610.346 417.399 610.162 416.517L611.673 416.139C611.817 416.697 612.089 417.115 612.489 417.394C612.894 417.673 613.423 417.812 614.075 417.812C614.817 417.812 615.406 417.655 615.843 417.34C616.284 417.021 616.504 416.638 616.504 416.193C616.504 415.833 616.378 415.532 616.126 415.289C615.874 415.042 615.487 414.857 614.966 414.736L613.238 414.331C612.289 414.106 611.592 413.757 611.147 413.285C610.706 412.808 610.486 412.212 610.486 411.497C610.486 410.912 610.65 410.395 610.978 409.945C611.311 409.496 611.763 409.142 612.334 408.886C612.91 408.63 613.562 408.501 614.291 408.501C615.316 408.501 616.122 408.726 616.706 409.176C617.296 409.626 617.714 410.22 617.961 410.957Z" fill="white"/>
<rect x="504" y="436" width="50" height="20" fill="#A506B1"/>
<path d="M579.693 449.682H581.528L583.067 451.706L583.472 452.246L585.766 455.295H583.93L582.419 453.271L582.041 452.759L579.693 449.682ZM586.332 447.091C586.332 448.548 586.069 449.808 585.543 450.869C585.017 451.931 584.295 452.75 583.377 453.325C582.46 453.901 581.411 454.189 580.233 454.189C579.054 454.189 578.006 453.901 577.089 453.325C576.171 452.75 575.449 451.931 574.923 450.869C574.397 449.808 574.134 448.548 574.134 447.091C574.134 445.634 574.397 444.374 574.923 443.312C575.449 442.251 576.171 441.432 577.089 440.857C578.006 440.281 579.054 439.993 580.233 439.993C581.411 439.993 582.46 440.281 583.377 440.857C584.295 441.432 585.017 442.251 585.543 443.312C586.069 444.374 586.332 445.634 586.332 447.091ZM584.713 447.091C584.713 445.894 584.513 444.885 584.113 444.061C583.717 443.238 583.179 442.615 582.5 442.192C581.825 441.77 581.07 441.558 580.233 441.558C579.396 441.558 578.638 441.77 577.959 442.192C577.284 442.615 576.747 443.238 576.347 444.061C575.951 444.885 575.753 445.894 575.753 447.091C575.753 448.287 575.951 449.297 576.347 450.12C576.747 450.944 577.284 451.567 577.959 451.989C578.638 452.412 579.396 452.624 580.233 452.624C581.07 452.624 581.825 452.412 582.5 451.989C583.179 451.567 583.717 450.944 584.113 450.12C584.513 449.297 584.713 448.287 584.713 447.091ZM595.461 449.763V443.636H597.054V454H595.461V452.246H595.353C595.11 452.772 594.733 453.22 594.22 453.588C593.707 453.953 593.059 454.135 592.277 454.135C591.629 454.135 591.053 453.993 590.549 453.71C590.046 453.422 589.65 452.99 589.362 452.414C589.074 451.834 588.93 451.103 588.93 450.222V443.636H590.522V450.114C590.522 450.869 590.734 451.472 591.157 451.922C591.584 452.372 592.128 452.597 592.789 452.597C593.185 452.597 593.588 452.495 593.997 452.293C594.411 452.091 594.757 451.78 595.036 451.362C595.32 450.944 595.461 450.411 595.461 449.763ZM604.315 454.216C603.317 454.216 602.455 453.996 601.731 453.555C601.011 453.109 600.456 452.489 600.065 451.692C599.678 450.892 599.484 449.961 599.484 448.899C599.484 447.838 599.678 446.902 600.065 446.092C600.456 445.278 601 444.644 601.697 444.19C602.399 443.731 603.218 443.501 604.153 443.501C604.693 443.501 605.226 443.591 605.752 443.771C606.279 443.951 606.758 444.244 607.19 444.648C607.621 445.049 607.965 445.58 608.222 446.241C608.478 446.902 608.606 447.716 608.606 448.683V449.358H600.618V447.982H606.987C606.987 447.397 606.87 446.875 606.636 446.416C606.407 445.957 606.079 445.595 605.651 445.33C605.228 445.065 604.729 444.932 604.153 444.932C603.519 444.932 602.97 445.089 602.507 445.404C602.048 445.714 601.695 446.119 601.448 446.619C601.2 447.118 601.077 447.653 601.077 448.224V449.142C601.077 449.925 601.212 450.588 601.481 451.132C601.756 451.672 602.136 452.084 602.622 452.367C603.108 452.646 603.672 452.786 604.315 452.786C604.734 452.786 605.111 452.727 605.449 452.61C605.791 452.489 606.085 452.309 606.333 452.07C606.58 451.827 606.771 451.526 606.906 451.166L608.445 451.598C608.283 452.12 608.01 452.579 607.628 452.974C607.246 453.366 606.773 453.672 606.211 453.892C605.649 454.108 605.017 454.216 604.315 454.216ZM611.029 454V443.636H612.567V445.202H612.675C612.864 444.689 613.206 444.273 613.701 443.953C614.195 443.634 614.753 443.474 615.374 443.474C615.491 443.474 615.637 443.477 615.812 443.481C615.988 443.486 616.121 443.492 616.21 443.501V445.121C616.157 445.107 616.033 445.087 615.839 445.06C615.65 445.029 615.45 445.013 615.239 445.013C614.735 445.013 614.285 445.118 613.889 445.33C613.498 445.537 613.188 445.825 612.958 446.194C612.733 446.558 612.621 446.974 612.621 447.442V454H611.029ZM618.098 454V443.636H619.69V454H618.098ZM618.908 441.909C618.597 441.909 618.33 441.803 618.105 441.592C617.884 441.381 617.774 441.126 617.774 440.83C617.774 440.533 617.884 440.279 618.105 440.067C618.33 439.856 618.597 439.75 618.908 439.75C619.218 439.75 619.483 439.856 619.704 440.067C619.929 440.279 620.041 440.533 620.041 440.83C620.041 441.126 619.929 441.381 619.704 441.592C619.483 441.803 619.218 441.909 618.908 441.909ZM626.952 454.216C625.953 454.216 625.092 453.996 624.368 453.555C623.648 453.109 623.093 452.489 622.701 451.692C622.314 450.892 622.121 449.961 622.121 448.899C622.121 447.838 622.314 446.902 622.701 446.092C623.093 445.278 623.637 444.644 624.334 444.19C625.036 443.731 625.854 443.501 626.79 443.501C627.33 443.501 627.863 443.591 628.389 443.771C628.915 443.951 629.394 444.244 629.826 444.648C630.258 445.049 630.602 445.58 630.859 446.241C631.115 446.902 631.243 447.716 631.243 448.683V449.358H623.255V447.982H629.624C629.624 447.397 629.507 446.875 629.273 446.416C629.044 445.957 628.715 445.595 628.288 445.33C627.865 445.065 627.366 444.932 626.79 444.932C626.156 444.932 625.607 445.089 625.144 445.404C624.685 445.714 624.332 446.119 624.084 446.619C623.837 447.118 623.713 447.653 623.713 448.224V449.142C623.713 449.925 623.848 450.588 624.118 451.132C624.393 451.672 624.773 452.084 625.258 452.367C625.744 452.646 626.309 452.786 626.952 452.786C627.37 452.786 627.748 452.727 628.085 452.61C628.427 452.489 628.722 452.309 628.969 452.07C629.217 451.827 629.408 451.526 629.543 451.166L631.081 451.598C630.919 452.12 630.647 452.579 630.265 452.974C629.882 453.366 629.41 453.672 628.848 453.892C628.286 454.108 627.654 454.216 626.952 454.216ZM641.006 445.957L639.576 446.362C639.486 446.124 639.353 445.892 639.178 445.667C639.007 445.438 638.773 445.249 638.476 445.1C638.179 444.952 637.799 444.878 637.336 444.878C636.702 444.878 636.173 445.024 635.75 445.316C635.332 445.604 635.123 445.971 635.123 446.416C635.123 446.812 635.267 447.125 635.555 447.354C635.842 447.583 636.292 447.775 636.904 447.928L638.442 448.305C639.369 448.53 640.059 448.874 640.514 449.338C640.968 449.797 641.195 450.388 641.195 451.112C641.195 451.706 641.024 452.237 640.682 452.705C640.345 453.172 639.873 453.541 639.266 453.811C638.658 454.081 637.952 454.216 637.147 454.216C636.09 454.216 635.215 453.987 634.522 453.528C633.83 453.069 633.391 452.399 633.207 451.517L634.718 451.139C634.862 451.697 635.134 452.115 635.534 452.394C635.939 452.673 636.468 452.812 637.12 452.812C637.862 452.812 638.451 452.655 638.888 452.34C639.329 452.021 639.549 451.638 639.549 451.193C639.549 450.833 639.423 450.532 639.171 450.289C638.919 450.042 638.532 449.857 638.011 449.736L636.283 449.331C635.334 449.106 634.637 448.757 634.192 448.285C633.751 447.808 633.53 447.212 633.53 446.497C633.53 445.912 633.695 445.395 634.023 444.945C634.356 444.496 634.808 444.142 635.379 443.886C635.955 443.63 636.607 443.501 637.336 443.501C638.361 443.501 639.167 443.726 639.751 444.176C640.341 444.626 640.759 445.22 641.006 445.957Z" fill="white"/>
<rect x="504" y="471" width="50" height="20" fill="#A5A801"/>
<path d="M574.673 489V475.182H579.504C580.467 475.182 581.261 475.348 581.886 475.681C582.511 476.009 582.977 476.453 583.283 477.01C583.589 477.564 583.741 478.178 583.741 478.852C583.741 479.446 583.636 479.936 583.424 480.323C583.217 480.71 582.943 481.016 582.601 481.241C582.264 481.466 581.897 481.632 581.501 481.74V481.875C581.924 481.902 582.349 482.05 582.777 482.32C583.204 482.59 583.562 482.977 583.849 483.481C584.137 483.985 584.281 484.601 584.281 485.33C584.281 486.022 584.124 486.645 583.809 487.199C583.494 487.752 582.997 488.19 582.318 488.514C581.639 488.838 580.755 489 579.666 489H574.673ZM576.347 487.516H579.666C580.759 487.516 581.535 487.304 581.994 486.881C582.457 486.454 582.689 485.937 582.689 485.33C582.689 484.862 582.57 484.43 582.331 484.034C582.093 483.634 581.753 483.314 581.312 483.076C580.872 482.833 580.35 482.712 579.747 482.712H576.347V487.516ZM576.347 481.254H579.45C579.954 481.254 580.408 481.155 580.813 480.957C581.223 480.759 581.546 480.481 581.785 480.121C582.028 479.761 582.149 479.338 582.149 478.852C582.149 478.245 581.938 477.73 581.515 477.307C581.092 476.88 580.422 476.666 579.504 476.666H576.347V481.254ZM588.407 475.182V489H586.815V475.182H588.407ZM595.534 489.216C594.598 489.216 593.777 488.993 593.071 488.548C592.369 488.103 591.821 487.48 591.425 486.679C591.033 485.878 590.838 484.943 590.838 483.872C590.838 482.793 591.033 481.85 591.425 481.045C591.821 480.24 592.369 479.615 593.071 479.169C593.777 478.724 594.598 478.501 595.534 478.501C596.469 478.501 597.288 478.724 597.99 479.169C598.696 479.615 599.245 480.24 599.636 481.045C600.032 481.85 600.23 482.793 600.23 483.872C600.23 484.943 600.032 485.878 599.636 486.679C599.245 487.48 598.696 488.103 597.99 488.548C597.288 488.993 596.469 489.216 595.534 489.216ZM595.534 487.786C596.245 487.786 596.829 487.603 597.288 487.239C597.747 486.875 598.086 486.396 598.307 485.802C598.527 485.208 598.638 484.565 598.638 483.872C598.638 483.179 598.527 482.534 598.307 481.936C598.086 481.337 597.747 480.854 597.288 480.485C596.829 480.116 596.245 479.932 595.534 479.932C594.823 479.932 594.238 480.116 593.78 480.485C593.321 480.854 592.981 481.337 592.761 481.936C592.54 482.534 592.43 483.179 592.43 483.872C592.43 484.565 592.54 485.208 592.761 485.802C592.981 486.396 593.321 486.875 593.78 487.239C594.238 487.603 594.823 487.786 595.534 487.786ZM606.844 493.102C606.075 493.102 605.413 493.003 604.86 492.805C604.307 492.612 603.846 492.356 603.477 492.036C603.113 491.721 602.822 491.384 602.607 491.024L603.875 490.134C604.019 490.322 604.201 490.538 604.422 490.781C604.642 491.029 604.943 491.242 605.326 491.422C605.712 491.607 606.219 491.699 606.844 491.699C607.68 491.699 608.371 491.496 608.915 491.092C609.459 490.687 609.732 490.053 609.732 489.189V487.084H609.597C609.48 487.273 609.313 487.507 609.097 487.786C608.886 488.06 608.58 488.305 608.18 488.521C607.784 488.732 607.249 488.838 606.574 488.838C605.737 488.838 604.986 488.64 604.32 488.244C603.659 487.848 603.135 487.273 602.748 486.517C602.366 485.761 602.175 484.844 602.175 483.764C602.175 482.703 602.361 481.778 602.735 480.991C603.108 480.199 603.628 479.588 604.293 479.156C604.959 478.72 605.728 478.501 606.601 478.501C607.276 478.501 607.811 478.614 608.207 478.839C608.607 479.059 608.913 479.311 609.124 479.594C609.34 479.873 609.507 480.103 609.624 480.283H609.786V478.636H611.324V489.297C611.324 490.188 611.121 490.912 610.717 491.469C610.316 492.032 609.777 492.443 609.097 492.704C608.423 492.97 607.671 493.102 606.844 493.102ZM606.79 487.408C607.429 487.408 607.968 487.261 608.409 486.969C608.85 486.677 609.185 486.256 609.414 485.707C609.644 485.159 609.759 484.502 609.759 483.737C609.759 482.991 609.646 482.332 609.421 481.76C609.196 481.189 608.863 480.741 608.423 480.418C607.982 480.094 607.438 479.932 606.79 479.932C606.115 479.932 605.553 480.103 605.103 480.445C604.658 480.786 604.323 481.245 604.098 481.821C603.877 482.397 603.767 483.036 603.767 483.737C603.767 484.457 603.879 485.093 604.104 485.647C604.334 486.195 604.671 486.627 605.116 486.942C605.566 487.252 606.124 487.408 606.79 487.408ZM621.58 480.957L620.149 481.362C620.059 481.124 619.926 480.892 619.751 480.667C619.58 480.438 619.346 480.249 619.049 480.1C618.752 479.952 618.372 479.878 617.909 479.878C617.275 479.878 616.746 480.024 616.324 480.316C615.905 480.604 615.696 480.971 615.696 481.416C615.696 481.812 615.84 482.125 616.128 482.354C616.416 482.583 616.866 482.775 617.477 482.928L619.016 483.305C619.942 483.53 620.633 483.874 621.087 484.338C621.541 484.797 621.768 485.388 621.768 486.112C621.768 486.706 621.598 487.237 621.256 487.705C620.918 488.172 620.446 488.541 619.839 488.811C619.232 489.081 618.525 489.216 617.72 489.216C616.663 489.216 615.788 488.987 615.096 488.528C614.403 488.069 613.964 487.399 613.78 486.517L615.291 486.139C615.435 486.697 615.707 487.115 616.108 487.394C616.512 487.673 617.041 487.812 617.693 487.812C618.435 487.812 619.025 487.655 619.461 487.34C619.902 487.021 620.122 486.638 620.122 486.193C620.122 485.833 619.996 485.532 619.744 485.289C619.492 485.042 619.106 484.857 618.584 484.736L616.857 484.331C615.907 484.106 615.21 483.757 614.765 483.285C614.324 482.808 614.104 482.212 614.104 481.497C614.104 480.912 614.268 480.395 614.596 479.945C614.929 479.496 615.381 479.142 615.952 478.886C616.528 478.63 617.18 478.501 617.909 478.501C618.935 478.501 619.74 478.726 620.325 479.176C620.914 479.626 621.332 480.22 621.58 480.957Z" fill="white"/>
<rect x="504" y="507" width="50" height="20" fill="#46DCB5"/>
<path d="M585.793 514.5H584.119C584.02 514.019 583.847 513.596 583.6 513.232C583.357 512.867 583.06 512.561 582.709 512.314C582.363 512.062 581.978 511.873 581.555 511.747C581.133 511.621 580.692 511.558 580.233 511.558C579.396 511.558 578.638 511.77 577.959 512.192C577.284 512.615 576.747 513.238 576.347 514.061C575.951 514.885 575.753 515.894 575.753 517.091C575.753 518.287 575.951 519.297 576.347 520.12C576.747 520.944 577.284 521.567 577.959 521.989C578.638 522.412 579.396 522.624 580.233 522.624C580.692 522.624 581.133 522.561 581.555 522.435C581.978 522.309 582.363 522.122 582.709 521.875C583.06 521.623 583.357 521.315 583.6 520.95C583.847 520.581 584.02 520.159 584.119 519.682H585.793C585.667 520.388 585.437 521.02 585.104 521.578C584.772 522.136 584.358 522.61 583.863 523.001C583.368 523.388 582.813 523.683 582.196 523.885C581.585 524.088 580.93 524.189 580.233 524.189C579.054 524.189 578.006 523.901 577.089 523.325C576.171 522.75 575.449 521.931 574.923 520.869C574.397 519.808 574.134 518.548 574.134 517.091C574.134 515.634 574.397 514.374 574.923 513.312C575.449 512.251 576.171 511.432 577.089 510.857C578.006 510.281 579.054 509.993 580.233 509.993C580.93 509.993 581.585 510.094 582.196 510.297C582.813 510.499 583.368 510.796 583.863 511.187C584.358 511.574 584.772 512.046 585.104 512.604C585.437 513.157 585.667 513.789 585.793 514.5ZM592.491 524.216C591.555 524.216 590.734 523.993 590.028 523.548C589.326 523.103 588.778 522.48 588.382 521.679C587.991 520.878 587.795 519.943 587.795 518.872C587.795 517.793 587.991 516.85 588.382 516.045C588.778 515.24 589.326 514.615 590.028 514.169C590.734 513.724 591.555 513.501 592.491 513.501C593.426 513.501 594.245 513.724 594.947 514.169C595.653 514.615 596.202 515.24 596.593 516.045C596.989 516.85 597.187 517.793 597.187 518.872C597.187 519.943 596.989 520.878 596.593 521.679C596.202 522.48 595.653 523.103 594.947 523.548C594.245 523.993 593.426 524.216 592.491 524.216ZM592.491 522.786C593.202 522.786 593.786 522.603 594.245 522.239C594.704 521.875 595.044 521.396 595.264 520.802C595.484 520.208 595.595 519.565 595.595 518.872C595.595 518.179 595.484 517.534 595.264 516.936C595.044 516.337 594.704 515.854 594.245 515.485C593.786 515.116 593.202 514.932 592.491 514.932C591.78 514.932 591.195 515.116 590.737 515.485C590.278 515.854 589.938 516.337 589.718 516.936C589.497 517.534 589.387 518.179 589.387 518.872C589.387 519.565 589.497 520.208 589.718 520.802C589.938 521.396 590.278 521.875 590.737 522.239C591.195 522.603 591.78 522.786 592.491 522.786ZM599.618 524V513.636H601.156V515.256H601.291C601.507 514.702 601.855 514.273 602.337 513.967C602.818 513.657 603.396 513.501 604.071 513.501C604.754 513.501 605.323 513.657 605.778 513.967C606.237 514.273 606.594 514.702 606.85 515.256H606.958C607.224 514.72 607.622 514.295 608.153 513.98C608.683 513.661 609.32 513.501 610.062 513.501C610.989 513.501 611.747 513.792 612.336 514.372C612.925 514.948 613.22 515.845 613.22 517.064V524H611.627V517.064C611.627 516.299 611.418 515.753 611 515.424C610.582 515.096 610.089 514.932 609.522 514.932C608.794 514.932 608.229 515.152 607.829 515.593C607.429 516.029 607.228 516.583 607.228 517.253V524H605.609V516.902C605.609 516.313 605.418 515.838 605.036 515.478C604.653 515.114 604.161 514.932 603.558 514.932C603.144 514.932 602.757 515.042 602.397 515.262C602.042 515.483 601.754 515.789 601.534 516.18C601.318 516.567 601.21 517.014 601.21 517.523V524H599.618ZM616.131 524V513.636H617.67V515.256H617.805C618.02 514.702 618.369 514.273 618.85 513.967C619.332 513.657 619.91 513.501 620.584 513.501C621.268 513.501 621.837 513.657 622.291 513.967C622.75 514.273 623.108 514.702 623.364 515.256H623.472C623.738 514.72 624.136 514.295 624.666 513.98C625.197 513.661 625.834 513.501 626.576 513.501C627.502 513.501 628.26 513.792 628.85 514.372C629.439 514.948 629.733 515.845 629.733 517.064V524H628.141V517.064C628.141 516.299 627.932 515.753 627.514 515.424C627.095 515.096 626.603 514.932 626.036 514.932C625.307 514.932 624.743 515.152 624.343 515.593C623.942 516.029 623.742 516.583 623.742 517.253V524H622.123V516.902C622.123 516.313 621.932 515.838 621.549 515.478C621.167 515.114 620.674 514.932 620.072 514.932C619.658 514.932 619.271 515.042 618.911 515.262C618.556 515.483 618.268 515.789 618.047 516.18C617.831 516.567 617.724 517.014 617.724 517.523V524H616.131ZM636.99 524.216C635.991 524.216 635.13 523.996 634.406 523.555C633.686 523.109 633.131 522.489 632.739 521.692C632.353 520.892 632.159 519.961 632.159 518.899C632.159 517.838 632.353 516.902 632.739 516.092C633.131 515.278 633.675 514.644 634.372 514.19C635.074 513.731 635.893 513.501 636.828 513.501C637.368 513.501 637.901 513.591 638.427 513.771C638.953 513.951 639.433 514.244 639.864 514.648C640.296 515.049 640.64 515.58 640.897 516.241C641.153 516.902 641.281 517.716 641.281 518.683V519.358H633.293V517.982H639.662C639.662 517.397 639.545 516.875 639.311 516.416C639.082 515.957 638.753 515.595 638.326 515.33C637.903 515.065 637.404 514.932 636.828 514.932C636.194 514.932 635.645 515.089 635.182 515.404C634.723 515.714 634.37 516.119 634.123 516.619C633.875 517.118 633.751 517.653 633.751 518.224V519.142C633.751 519.925 633.886 520.588 634.156 521.132C634.431 521.672 634.811 522.084 635.297 522.367C635.782 522.646 636.347 522.786 636.99 522.786C637.408 522.786 637.786 522.727 638.124 522.61C638.465 522.489 638.76 522.309 639.007 522.07C639.255 521.827 639.446 521.526 639.581 521.166L641.119 521.598C640.957 522.12 640.685 522.579 640.303 522.974C639.921 523.366 639.448 523.672 638.886 523.892C638.324 524.108 637.692 524.216 636.99 524.216ZM645.296 517.766V524H643.703V513.636H645.242V515.256H645.377C645.62 514.729 645.989 514.307 646.483 513.987C646.978 513.663 647.617 513.501 648.4 513.501C649.101 513.501 649.715 513.645 650.241 513.933C650.768 514.217 651.177 514.648 651.469 515.229C651.762 515.804 651.908 516.533 651.908 517.415V524H650.316V517.523C650.316 516.709 650.104 516.074 649.681 515.62C649.259 515.161 648.678 514.932 647.941 514.932C647.432 514.932 646.978 515.042 646.578 515.262C646.182 515.483 645.869 515.804 645.64 516.227C645.411 516.65 645.296 517.163 645.296 517.766ZM659.325 513.636V514.986H653.954V513.636H659.325ZM655.519 511.153H657.112V521.031C657.112 521.481 657.177 521.818 657.307 522.043C657.442 522.264 657.613 522.412 657.82 522.489C658.032 522.561 658.254 522.597 658.488 522.597C658.664 522.597 658.808 522.588 658.92 522.57C659.032 522.547 659.122 522.529 659.19 522.516L659.514 523.946C659.406 523.987 659.255 524.027 659.062 524.067C658.868 524.112 658.623 524.135 658.326 524.135C657.876 524.135 657.436 524.038 657.004 523.845C656.576 523.651 656.221 523.357 655.938 522.961C655.659 522.565 655.519 522.066 655.519 521.463V511.153ZM668.875 515.957L667.445 516.362C667.355 516.124 667.222 515.892 667.047 515.667C666.876 515.438 666.642 515.249 666.345 515.1C666.048 514.952 665.668 514.878 665.205 514.878C664.571 514.878 664.042 515.024 663.619 515.316C663.201 515.604 662.992 515.971 662.992 516.416C662.992 516.812 663.136 517.125 663.424 517.354C663.712 517.583 664.161 517.775 664.773 517.928L666.312 518.305C667.238 518.53 667.929 518.874 668.383 519.338C668.837 519.797 669.064 520.388 669.064 521.112C669.064 521.706 668.893 522.237 668.552 522.705C668.214 523.172 667.742 523.541 667.135 523.811C666.527 524.081 665.821 524.216 665.016 524.216C663.959 524.216 663.084 523.987 662.391 523.528C661.699 523.069 661.26 522.399 661.076 521.517L662.587 521.139C662.731 521.697 663.003 522.115 663.403 522.394C663.808 522.673 664.337 522.812 664.989 522.812C665.731 522.812 666.321 522.655 666.757 522.34C667.198 522.021 667.418 521.638 667.418 521.193C667.418 520.833 667.292 520.532 667.04 520.289C666.788 520.042 666.401 519.857 665.88 519.736L664.152 519.331C663.203 519.106 662.506 518.757 662.061 518.285C661.62 517.808 661.4 517.212 661.4 516.497C661.4 515.912 661.564 515.395 661.892 514.945C662.225 514.496 662.677 514.142 663.248 513.886C663.824 513.63 664.476 513.501 665.205 513.501C666.231 513.501 667.036 513.726 667.62 514.176C668.21 514.626 668.628 515.22 668.875 515.957Z" fill="white"/>
</svg>
