<svg width="26" height="25" viewBox="0 0 26 25" fill="none" xmlns="http://www.w3.org/2000/svg">
<path d="M9.98901 22.1512C9.72196 22.1512 9.46586 22.0451 9.27703 21.8563C9.0882 21.6674 8.98212 21.4113 8.98212 21.1443V18.1236H4.95457C4.42048 18.1236 3.90827 17.9115 3.53062 17.5338C3.15296 17.1561 2.9408 16.6439 2.9408 16.1098V4.0272C2.9408 3.49312 3.15296 2.9809 3.53062 2.60325C3.90827 2.22559 4.42048 2.01343 4.95457 2.01343H21.0648C21.5988 2.01343 22.1111 2.22559 22.4887 2.60325C22.8664 2.9809 23.0785 3.49312 23.0785 4.0272V16.1098C23.0785 16.6439 22.8664 17.1561 22.4887 17.5338C22.1111 17.9115 21.5988 18.1236 21.0648 18.1236H14.9228L11.1973 21.8592C10.9959 22.0505 10.7442 22.1512 10.4924 22.1512H9.98901Z" fill="#5161F1"/>
</svg>
