<svg width="86" height="86" viewBox="0 0 86 86" fill="none" xmlns="http://www.w3.org/2000/svg">
<path d="M65.8438 0H20.1562C9.02426 0 0 9.02426 0 20.1562V65.8438C0 76.9757 9.02426 86 20.1562 86H65.8438C76.9757 86 86 76.9757 86 65.8438V20.1562C86 9.02426 76.9757 0 65.8438 0Z" fill="black"/>
<path d="M76.5938 61.4554C75.6158 61.8258 74.536 61.8251 73.5586 61.4534C72.5811 61.0816 71.7737 60.3647 71.289 59.4381C68.2444 54.8804 64.8823 50.5284 61.6509 46.0829L60.2497 44.2151C56.4019 49.3704 52.5541 54.3201 49.0425 59.4569C48.5851 60.3425 47.8214 61.0317 46.8936 61.396C45.9658 61.7603 44.9372 61.7748 43.9994 61.4369L58.438 42.0671L45.0079 24.5648C45.9747 24.2157 47.0323 24.2109 48.0021 24.5511C48.972 24.8914 49.7948 25.556 50.3315 26.4326C53.4507 30.9906 56.9065 35.3427 60.3431 39.9564C63.7989 35.3799 67.2171 31.0091 70.4112 26.4887C70.8711 25.6174 71.6353 24.9457 72.5583 24.6013C73.4813 24.2569 74.4987 24.2639 75.417 24.6209L70.2056 31.5321C67.8708 34.614 65.5733 37.7147 63.1452 40.722C62.9494 40.8972 62.7928 41.1116 62.6855 41.3514C62.5783 41.5912 62.5229 41.851 62.5229 42.1136C62.5229 42.3763 62.5783 42.6361 62.6855 42.8759C62.7928 43.1157 62.9494 43.3301 63.1452 43.5053C67.6094 49.4265 72.0361 55.3662 76.5938 61.4554ZM9.40625 41.8242C9.79862 39.9564 10.0412 37.9203 10.583 36.0152C13.8144 24.5278 26.9828 19.7458 36.0421 26.8626C41.3469 31.0282 42.6731 36.9306 42.4118 43.5802H12.5258C12.04 55.4599 20.6135 62.6325 31.5778 58.9715C33.3564 58.3352 34.9485 57.2661 36.2105 55.8605C37.4725 54.455 38.3647 52.7573 38.8065 50.9208C39.3856 49.0529 40.3196 48.7355 42.094 49.277C41.8018 51.551 40.9979 53.7291 39.7426 55.6477C38.4873 57.5662 36.8135 59.1751 34.8468 60.3535C31.5975 62.1306 27.8695 62.8346 24.1959 62.3649C20.5223 61.8953 17.0913 60.276 14.3936 57.7386C11.7247 54.7378 10.1109 50.9461 9.79862 46.9422C9.79862 46.3073 9.55574 45.6721 9.42506 45.0744C9.4127 43.9911 9.40643 42.9077 9.40625 41.8242ZM12.5631 41.021H39.5912C39.4229 32.4103 33.9875 26.3022 26.7403 26.2465C18.6711 26.1343 12.8993 32.1113 12.5442 40.9837L12.5631 41.021Z" fill="white"/>
</svg>
