<svg width="37" height="38" viewBox="0 0 37 38" fill="none" xmlns="http://www.w3.org/2000/svg">
<path fill-rule="evenodd" clip-rule="evenodd" d="M18.0171 35.8912C27.3459 35.8912 34.9083 28.3288 34.9083 19C34.9083 9.67132 27.3459 2.10889 18.0171 2.10889C8.68841 2.10889 1.12598 9.67132 1.12598 19C1.12598 28.3288 8.68841 35.8912 18.0171 35.8912ZM13.5022 33.4296C14.9279 33.8753 16.4445 34.1155 18.0171 34.1155C19.5794 34.1155 21.0862 33.8785 22.5038 33.4385V29.7435C22.5042 29.1474 22.3859 28.5572 22.1557 28.0074C21.9255 27.4576 21.588 26.9591 21.163 26.5412C26.1248 25.6685 28.201 22.6457 28.201 19.0492C28.201 17.3038 27.6204 15.6886 26.4802 14.3936C27.1244 12.3907 26.4571 10.6788 26.3051 10.2888C26.2976 10.2697 26.2914 10.2538 26.2867 10.2412C24.3864 10.0688 22.4158 11.4834 22.0181 11.786C20.8463 11.4693 19.5161 11.2969 18.0241 11.2969C16.5391 11.2969 15.2124 11.4623 14.0511 11.7755C13.8857 11.6453 11.7603 9.99839 9.71574 10.1814C9.71188 10.1913 9.70711 10.2033 9.70154 10.2173C9.5548 10.586 8.85167 12.353 9.54331 14.4042C8.41723 15.6956 7.84363 17.2968 7.84363 19.0387C7.84363 22.6281 9.90576 25.6474 14.8535 26.5341C14.2623 27.1077 13.833 27.8467 13.6324 28.6737C12.7139 28.9024 10.9016 29.1347 9.97262 27.7588C8.68819 25.862 7.57971 25.1617 6.49234 25.7213C6.25095 25.9998 6.56313 26.2097 7.00702 26.5082C7.40438 26.7755 7.90728 27.1137 8.21313 27.6356C8.26 27.7128 8.30416 27.8465 8.36036 28.0166C8.68817 29.0088 9.42586 31.2416 13.5022 30.764V33.4296Z" fill="#928A97"/>
</svg>
