<svg width="92" height="92" viewBox="0 0 92 92" fill="none" xmlns="http://www.w3.org/2000/svg">
<path d="M1.4375 0.71875V90.5625H91.2812V0.71875H1.4375ZM48.9605 77.275C47.6344 79.9696 45.103 81.7398 42.1698 82.5944C37.6625 83.6294 33.3514 83.0393 30.1444 81.1145C27.9982 79.7978 26.3221 77.7709 25.1843 75.4357L32.0268 71.2454C32.0864 71.2705 32.2661 71.5954 32.5062 72.0152C33.3788 73.4771 34.1313 74.5121 35.6105 75.2387C37.0638 75.7347 40.2543 76.0517 41.4863 73.4943C42.2388 72.1934 41.9994 68.0117 41.9994 63.3851C41.9987 56.115 42.0325 48.875 42.0325 41.6875H50.4483C50.4483 49.5938 50.4915 57.0817 50.4483 64.7968C50.4663 69.5261 50.8767 73.7423 48.9605 77.275ZM83.8731 74.8973C80.9478 84.9038 64.6379 85.2287 58.1203 78.6176C56.7432 77.0615 55.8799 76.2486 55.0584 74.4524C58.5221 72.4601 58.5221 72.4601 61.8923 70.5101C63.7229 73.324 65.4156 74.8715 68.4609 75.5047C72.5923 76.0093 76.7488 74.5897 75.8166 70.2018C74.8585 66.6181 67.3569 65.7462 62.2517 61.9138C57.0687 58.4329 55.8541 49.9747 60.1134 45.1418C61.5329 43.3543 63.9537 42.0203 66.4937 41.3792L69.1445 41.0363C74.2339 40.9335 77.4151 42.2776 79.7503 44.8852C80.4001 45.5436 80.9305 46.2537 81.9224 47.7926C79.2113 49.5204 79.2199 49.5039 75.3365 52.0181C74.5071 50.2313 73.1307 49.11 71.6759 48.6227C69.4176 47.9385 66.5699 48.6824 65.9791 51.0686C65.7742 51.8039 65.8167 52.4882 66.1423 53.7028C67.0572 55.7894 70.1277 56.6964 72.882 57.9622C80.8105 61.1778 83.4878 64.6257 84.1462 68.7298C84.7802 72.2631 83.9931 74.5552 83.8731 74.8973Z" fill="white"/>
</svg>
