<svg width="68" height="28" viewBox="0 0 68 28" fill="none" xmlns="http://www.w3.org/2000/svg">
<path d="M26.067 9.98205C26.067 17.4157 15.045 23.4327 14.5756 23.6812C14.4519 23.7478 14.3136 23.7826 14.1731 23.7826C14.0327 23.7826 13.8944 23.7478 13.7707 23.6812C13.3013 23.4327 2.2793 17.4157 2.2793 9.98205C2.28126 8.23644 2.97558 6.56289 4.20991 5.32856C5.44424 4.09423 7.11779 3.39992 8.86339 3.39795C11.0563 3.39795 12.9763 4.34096 14.1731 5.93495C15.37 4.34096 17.29 3.39795 19.4829 3.39795C21.2285 3.39992 22.9021 4.09423 24.1364 5.32856C25.3707 6.56289 26.065 8.23644 26.067 9.98205Z" fill="#D11D1D"/>
<path d="M33.243 18.9998V17.9208C34.088 17.2751 34.8268 16.6901 35.4595 16.1658C36.0921 15.6371 36.6316 15.1583 37.078 14.7293C37.5243 14.3003 37.8861 13.9103 38.1635 13.5593C38.4408 13.2039 38.6423 12.8789 38.768 12.5843C38.898 12.2853 38.963 12.0036 38.963 11.7393C38.963 11.4099 38.885 11.1109 38.729 10.8423C38.573 10.5693 38.3606 10.3526 38.092 10.1923C37.8276 10.0319 37.5286 9.95176 37.195 9.95176C36.8743 9.95176 36.5775 10.0341 36.3045 10.1988C36.0358 10.3591 35.7996 10.5974 35.596 10.9138C35.3923 11.2301 35.2233 11.6179 35.089 12.0773L33.321 11.2518C33.451 10.7621 33.6373 10.3223 33.88 9.93226C34.127 9.53792 34.4216 9.20209 34.764 8.92476C35.1106 8.64742 35.4985 8.43509 35.9275 8.28776C36.3565 8.14042 36.8201 8.06676 37.3185 8.06676C38.0768 8.06676 38.7506 8.22492 39.34 8.54126C39.9293 8.85326 40.3908 9.28009 40.7245 9.82176C41.0625 10.3634 41.2315 10.9809 41.2315 11.6743C41.2315 12.0209 41.1838 12.3611 41.0885 12.6948C40.9931 13.0284 40.8436 13.3664 40.64 13.7088C40.4363 14.0468 40.172 14.3956 39.847 14.7553C39.522 15.1106 39.1298 15.4854 38.6705 15.8798C38.2155 16.2698 37.6846 16.6858 37.078 17.1278H41.4265V18.9998H33.243ZM46.4459 19.1948C45.8739 19.1948 45.3344 19.1059 44.8274 18.9283C44.3204 18.7506 43.8784 18.4884 43.5014 18.1418C43.1244 17.7951 42.8427 17.3704 42.6564 16.8678L44.3269 16.0618C44.4526 16.4778 44.7017 16.8114 45.0744 17.0628C45.4514 17.3141 45.8934 17.4398 46.4004 17.4398C46.7947 17.4398 47.1327 17.3639 47.4144 17.2123C47.7004 17.0563 47.9192 16.8396 48.0709 16.5623C48.2269 16.2849 48.3049 15.9664 48.3049 15.6068C48.3049 15.1604 48.1879 14.7791 47.9539 14.4628C47.7242 14.1421 47.3971 13.8973 46.9724 13.7283C46.5521 13.5549 46.0537 13.4683 45.4774 13.4683C45.0787 13.4683 44.6996 13.5224 44.3399 13.6308C43.9802 13.7391 43.6444 13.8973 43.3324 14.1053L44.2489 8.27476H49.7219V10.1208H46.0429L45.7244 12.2203C46.7124 12.0079 47.6007 12.0773 48.3894 12.4283C48.8011 12.5669 49.1564 12.7814 49.4554 13.0718C49.7587 13.3578 49.9927 13.7044 50.1574 14.1118C50.3264 14.5191 50.4109 14.9741 50.4109 15.4768C50.4109 16.2481 50.2354 16.9133 49.8844 17.4723C49.5334 18.0269 49.0589 18.4538 48.4609 18.7528C47.8629 19.0474 47.1912 19.1948 46.4459 19.1948ZM56.2683 19.2078C55.393 19.2078 54.6238 18.9738 53.9608 18.5058C53.2978 18.0378 52.78 17.3856 52.4073 16.5493C52.039 15.7129 51.8548 14.7444 51.8548 13.6438C51.8548 12.5388 52.039 11.5703 52.4073 10.7383C52.78 9.90192 53.2978 9.24976 53.9608 8.78176C54.6238 8.31376 55.393 8.07976 56.2683 8.07976C57.1436 8.07976 57.9106 8.31376 58.5693 8.78176C59.2323 9.24976 59.748 9.90192 60.1163 10.7383C60.489 11.5703 60.6753 12.5388 60.6753 13.6438C60.6753 14.7444 60.489 15.7129 60.1163 16.5493C59.748 17.3856 59.2323 18.0378 58.5693 18.5058C57.9106 18.9738 57.1436 19.2078 56.2683 19.2078ZM56.2683 17.3553C56.719 17.3553 57.1068 17.2058 57.4318 16.9068C57.7568 16.6078 58.0081 16.1809 58.1858 15.6263C58.3635 15.0673 58.4523 14.4064 58.4523 13.6438C58.4523 12.8768 58.3635 12.2159 58.1858 11.6613C58.0081 11.1066 57.7568 10.6798 57.4318 10.3808C57.1068 10.0818 56.719 9.93226 56.2683 9.93226C55.8176 9.93226 55.4276 10.0818 55.0983 10.3808C54.7733 10.6798 54.522 11.1066 54.3443 11.6613C54.1666 12.2159 54.0778 12.8768 54.0778 13.6438C54.0778 14.4064 54.1666 15.0673 54.3443 15.6263C54.522 16.1809 54.7733 16.6078 55.0983 16.9068C55.4276 17.2058 55.8176 17.3553 56.2683 17.3553Z" fill="white"/>
</svg>
