<svg width="36" height="36" viewBox="0 0 36 36" fill="none" xmlns="http://www.w3.org/2000/svg">
<path d="M33.3941 13.0796C33.3941 22.8196 18.9525 30.7035 18.3374 31.0291C18.1753 31.1163 17.9942 31.1619 17.8101 31.1619C17.626 31.1619 17.4448 31.1163 17.2827 31.0291C16.6677 30.7035 2.22607 22.8196 2.22607 13.0796C2.22865 10.7924 3.13838 8.59965 4.75567 6.98236C6.37296 5.36506 8.56574 4.45534 10.8529 4.45276C13.7262 4.45276 16.2419 5.68835 17.8101 7.77689C19.3782 5.68835 21.8939 4.45276 24.7672 4.45276C27.0544 4.45534 29.2472 5.36506 30.8645 6.98236C32.4818 8.59965 33.3915 10.7924 33.3941 13.0796Z" fill="#D11D1D"/>
</svg>
