<svg width="113" height="114" viewBox="0 0 113 114" fill="none" xmlns="http://www.w3.org/2000/svg">
<path d="M56.4328 76.177C54.5597 76.177 52.7633 75.4329 51.4389 74.1084C50.1144 72.784 49.3703 70.9876 49.3703 69.1145C49.3703 67.2414 50.1144 65.445 51.4389 64.1206C52.7633 62.7961 54.5597 62.052 56.4328 62.052C58.3059 62.052 60.1023 62.7961 61.4267 64.1206C62.7512 65.445 63.4953 67.2414 63.4953 69.1145C63.4953 70.9876 62.7512 72.784 61.4267 74.1084C60.1023 75.4329 58.3059 76.177 56.4328 76.177ZM53.9468 90.2738C54.7708 91.2672 55.5947 92.223 56.4328 93.1411C57.2662 92.223 58.0948 91.2672 58.9188 90.2738C57.2616 90.3089 55.6039 90.3089 53.9468 90.2738ZM44.5537 89.6852C40.9381 89.3104 37.3463 88.7336 33.7951 87.9573C33.4525 89.5366 33.1854 91.1314 32.9947 92.7362C32.1001 100.19 33.3478 104.719 35.2453 105.811C37.1428 106.908 41.6863 105.722 47.6988 101.225C48.9371 100.298 50.1848 99.2667 51.4373 98.1414C48.9865 95.4535 46.6883 92.6304 44.5537 89.6852ZM79.0705 87.9573C75.5193 88.7335 71.9275 89.3104 68.3119 89.6852C66.1773 92.6304 63.8791 95.4535 61.4283 98.1414C62.6808 99.2714 63.9285 100.298 65.1668 101.225C71.1793 105.722 75.7228 106.908 77.6203 105.811C79.5178 104.719 80.7608 100.19 79.8756 92.7362C79.681 91.132 79.4092 89.5374 79.0705 87.9573ZM85.9022 86.1304C88.619 98.5557 87.1923 108.448 81.1563 111.932C75.1202 115.416 65.84 111.706 56.4375 103.142C47.035 111.706 37.7548 115.412 31.7188 111.927C25.6827 108.443 24.256 98.5557 26.968 86.1257C14.8488 82.2649 7 76.0828 7 69.1145C7 62.1462 14.8488 55.9641 26.968 52.1033C24.256 39.6733 25.6827 29.7858 31.7188 26.3016C37.7548 22.8175 47.035 26.5229 56.4375 35.0874C65.84 26.5229 75.1202 22.8175 81.1563 26.3016C87.1923 29.7858 88.619 39.6733 85.907 52.1033C98.0168 55.9641 105.866 62.1462 105.866 69.1145C105.866 76.0828 98.0168 82.2696 85.9022 86.1304ZM51.4325 40.0876C50.1848 38.9623 48.9371 37.9312 47.6988 37.0037C41.6863 32.5072 37.1428 31.3207 35.2453 32.4177C33.3478 33.5101 32.1048 38.0395 32.99 45.4975C33.1783 47.0324 33.442 48.6285 33.7904 50.2765C37.343 49.4983 40.9364 48.9199 44.5537 48.5438C46.7901 45.4693 49.0925 42.6395 51.4325 40.0876ZM68.3166 48.5438C71.9324 48.9196 75.5242 49.498 79.0752 50.2765C79.4283 48.6285 79.6967 47.0277 79.8756 45.4975C80.7702 38.0395 79.5225 33.5101 77.625 32.4177C75.7275 31.3207 71.184 32.5072 65.1715 37.0037C63.9332 37.9312 62.6855 38.9623 61.433 40.0876C63.7731 42.6395 66.0802 45.4693 68.3166 48.5438ZM58.9235 47.9553C58.0995 46.9665 57.2709 46.006 56.4375 45.0879C55.6041 46.006 54.7755 46.9618 53.9515 47.9553C55.6086 47.9201 57.2664 47.9201 58.9235 47.9553ZM39.3557 81.8458C38.4967 80.4291 37.6678 78.9943 36.8697 77.5424C36.4224 78.7525 36.008 79.9437 35.6314 81.1302C36.8414 81.3891 38.0891 81.6293 39.3557 81.8458ZM48.4475 82.9476C53.7637 83.3421 59.1019 83.3421 64.4181 82.9476C67.4174 78.5398 70.0865 73.9162 72.4035 69.1145C70.0879 64.3121 67.4188 59.6883 64.4181 55.2814C59.1019 54.8865 53.7637 54.8865 48.4475 55.2814C45.4475 59.6888 42.7784 64.3125 40.4621 69.1145C42.7786 73.9164 45.4477 78.5401 48.4475 82.9476ZM76.0006 60.6866C76.4479 59.4765 76.8623 58.2853 77.2389 57.1035C76.0046 56.8357 74.7644 56.5955 73.5193 56.3832C74.3765 57.8001 75.2038 59.2349 76.0006 60.6866ZM28.7949 58.9304C27.194 59.4483 25.678 60.0133 24.256 60.6254C17.3583 63.5822 14.0578 66.9251 14.0578 69.1145C14.0578 71.3039 17.3536 74.6468 24.256 77.6036C25.678 78.2157 27.194 78.7807 28.7949 79.2986C29.8401 76.0028 31.1349 72.5845 32.6793 69.1145C31.1953 65.795 29.8985 62.395 28.7949 58.9304ZM35.622 57.1035C36.0033 58.2806 36.4177 59.4765 36.865 60.6819C37.6632 59.2316 38.4921 57.7984 39.351 56.3832C38.0797 56.5997 36.832 56.8399 35.622 57.1035ZM84.0754 79.2986C85.6762 78.7807 87.1923 78.2157 88.6143 77.6036C95.5073 74.6468 98.8031 71.3039 98.8031 69.1145C98.8031 66.9251 95.5072 63.5822 88.6048 60.6254C87.1829 60.0133 85.6621 59.4483 84.0613 58.9304C83.0255 62.2262 81.726 65.6445 80.1816 69.1145C81.726 72.5845 83.0208 76.0028 84.066 79.2986M77.2389 81.1302C76.8497 79.9257 76.4353 78.7295 75.9959 77.5424C75.1975 78.9942 74.3687 80.4289 73.5099 81.8458C74.7812 81.6293 76.0289 81.3891 77.2389 81.1302Z" fill="white"/>
</svg>
