<svg width="92" height="92" viewBox="0 0 92 92" fill="none" xmlns="http://www.w3.org/2000/svg">
<mask id="mask0_4502_752" style="mask-type:luminance" maskUnits="userSpaceOnUse" x="0" y="0" width="92" height="92">
<path d="M0 0H92V92H0V0Z" fill="white"/>
</mask>
<g mask="url(#mask0_4502_752)">
<path d="M89.8112 3.36286e-06H2.185C1.60515 0.00101886 1.0494 0.232076 0.639742 0.642452C0.230085 1.05283 2.47956e-06 1.60899 3.36879e-06 2.18884V89.815C-0.000501608 90.1026 0.0557696 90.3874 0.16559 90.6532C0.27541 90.919 0.436619 91.1605 0.639972 91.3639C0.843324 91.5672 1.08482 91.7284 1.35061 91.8382C1.6164 91.9481 1.90125 92.0043 2.18884 92.0038H89.815C90.1024 92.0038 90.3871 91.9472 90.6526 91.8372C90.9182 91.7272 91.1595 91.566 91.3627 91.3627C91.566 91.1595 91.7272 90.9182 91.8372 90.6526C91.9472 90.3871 92.0038 90.1024 92.0038 89.815V2.185C92.0033 1.89756 91.9462 1.61303 91.8358 1.34766C91.7253 1.0823 91.5636 0.841282 91.36 0.638386C91.1564 0.43549 90.9148 0.274684 90.6491 0.165151C90.3833 0.0556166 90.0986 -0.000500479 89.8112 3.36286e-06ZM54.763 49.1663H43.8112V83.237H35.0482V49.1663H24.0963V41.6185H54.763V49.1663ZM57.2163 81.2897V72.1855C57.2163 72.1855 62.192 75.9345 68.1605 75.9345C74.129 75.9345 73.899 72.0322 73.899 71.4955C73.899 65.8337 56.9863 65.8337 56.9863 53.2833C56.9863 36.2173 81.6308 42.9525 81.6308 42.9525L81.3242 51.0638C81.3242 51.0638 77.1918 48.3077 72.5228 48.3077C67.8538 48.3077 66.171 50.531 66.171 52.9C66.171 59.0218 83.237 58.4123 83.237 70.7327C83.237 89.7077 57.2163 81.2935 57.2163 81.2935" fill="black"/>
</g>
</svg>
